<svg width="24" height="24" viewBox="0 0 24 24" fill="none" xmlns="http://www.w3.org/2000/svg">
<path d="M12 1.71436C17.6806 1.71436 22.2857 6.31943 22.2857 12.0001C22.2857 17.6807 17.6806 22.2858 12 22.2858C6.31936 22.2858 1.71429 17.6807 1.71429 12.0001C1.71429 6.31943 6.31936 1.71436 12 1.71436ZM12 3.42864C7.26613 3.42864 3.42857 7.2662 3.42857 12.0001C3.42857 16.7339 7.26613 20.5715 12 20.5715C16.7339 20.5715 20.5714 16.7339 20.5714 12.0001C20.5714 7.2662 16.7339 3.42864 12 3.42864ZM12 6.85721C12.4734 6.85721 12.8571 7.24097 12.8571 7.71436V11.1429H16.2857C16.7591 11.1429 17.1429 11.5267 17.1429 12.0001C17.1429 12.4735 16.7591 12.8572 16.2857 12.8572H12.8571V16.2858C12.8571 16.7592 12.4734 17.1429 12 17.1429C11.5266 17.1429 11.1429 16.7592 11.1429 16.2858V12.8572H7.71429C7.2409 12.8572 6.85714 12.4735 6.85714 12.0001C6.85714 11.5267 7.2409 11.1429 7.71429 11.1429H11.1429V7.71436C11.1429 7.24097 11.5266 6.85721 12 6.85721Z" fill="#5159F6"/>
</svg>
