<svg width="112" height="44" viewBox="0 0 112 44" fill="none" xmlns="http://www.w3.org/2000/svg">
<path d="M90.3992 14.2352L92.7808 16.6168L84.6509 24.7471C84.1484 25.2496 83.5097 25.5939 82.8137 25.7373L81.1515 26.0798C81.0532 26.1001 80.957 26.0368 80.9368 25.9384C80.9318 25.9142 80.9318 25.8892 80.9368 25.865L81.2801 24.2017C81.4236 23.5061 81.7678 22.8678 82.27 22.3656L90.3992 14.2352ZM93.6633 12.8993L93.6633 12.9005L94.116 13.3538C94.6473 13.887 94.647 14.7498 94.1154 15.2827L93.6361 15.7614L91.2545 13.3807L91.7357 12.8999C92.2675 12.3668 93.1309 12.3668 93.6633 12.8993Z" fill="#5159F6"/>
<path fill-rule="evenodd" clip-rule="evenodd" d="M80.6613 14.409L85.4224 14.409C85.8742 14.409 86.2405 14.7753 86.2405 15.2271C86.2405 15.6789 85.8742 16.0452 85.4224 16.0452H80.6956C79.9185 16.0452 79.3848 16.0458 78.9711 16.0796C78.567 16.1127 78.3499 16.1732 78.1928 16.2533C77.8336 16.4363 77.5416 16.7283 77.3585 17.0875C77.2785 17.2446 77.2179 17.4617 77.1849 17.8658C77.1511 18.2795 77.1505 18.8132 77.1505 19.5903V26.3169C77.1505 27.0941 77.1511 27.6277 77.1849 28.0414C77.2179 28.4455 77.2785 28.6626 77.3585 28.8197C77.5416 29.1789 77.8336 29.471 78.1928 29.654C78.3499 29.734 78.567 29.7946 78.9711 29.8276C79.3848 29.8614 79.9185 29.862 80.6956 29.862H87.4222C88.1993 29.862 88.733 29.8614 89.1467 29.8276C89.5508 29.7946 89.7679 29.734 89.925 29.654C90.2842 29.471 90.5762 29.1789 90.7592 28.8197C90.8393 28.6626 90.8998 28.4455 90.9329 28.0414C90.9667 27.6277 90.9673 27.0941 90.9673 26.3169V21.5901C90.9673 21.1383 91.3336 20.772 91.7854 20.772C92.2372 20.772 92.6035 21.1383 92.6035 21.5901V26.3512C92.6035 27.0857 92.6035 27.6864 92.5636 28.1746C92.5223 28.68 92.4343 29.1363 92.2171 29.5626C91.8772 30.2296 91.3349 30.7719 90.6678 31.1118C90.2416 31.329 89.7852 31.4171 89.2799 31.4584C88.7917 31.4982 88.191 31.4982 87.4565 31.4982H80.6613C79.9268 31.4982 79.3261 31.4982 78.8379 31.4584C78.3326 31.4171 77.8762 31.329 77.4499 31.1118C76.7829 30.7719 76.2406 30.2296 75.9007 29.5626C75.6835 29.1363 75.5954 28.68 75.5542 28.1746C75.5143 27.6864 75.5143 27.0857 75.5143 26.3512V19.556C75.5143 18.8215 75.5143 18.2208 75.5542 17.7326C75.5954 17.2273 75.6835 16.7709 75.9007 16.3447C76.2406 15.6776 76.7829 15.1353 77.4499 14.7954C77.8762 14.5782 78.3326 14.4902 78.8379 14.4489C79.3261 14.409 79.9268 14.409 80.6613 14.409Z" fill="#5159F6"/>
</svg>
