<svg width="150" height="41" viewBox="0 0 150 41" fill="none" xmlns="http://www.w3.org/2000/svg">
<path fill-rule="evenodd" clip-rule="evenodd" d="M57.6213 23.202L57.6201 23.2014C56.9503 22.8263 55.8297 22.5485 54.2372 22.3808C51.5029 22.127 49.3683 21.4489 47.8502 20.3317L47.8487 20.3307L47.8473 20.3296C46.3507 19.1783 45.597 17.6733 45.597 15.827C45.597 14.5301 45.9871 13.3866 46.7678 12.4035C47.5456 11.424 48.6221 10.6658 49.9891 10.1247L49.9902 10.1243C51.3858 9.58311 52.976 9.3144 54.758 9.3144C57.8618 9.3144 60.555 10.0619 62.8305 11.5632C63.0527 11.7098 63.1118 12.0044 62.9755 12.227L61.2534 15.0385C61.1083 15.2754 60.8004 15.3432 60.5672 15.2036C58.8238 14.1591 56.9584 13.6378 54.9682 13.6378C53.494 13.6378 52.3908 13.8471 51.641 14.2488L51.639 14.2499L51.6369 14.2509C51.2632 14.4378 50.9933 14.6628 50.8165 14.9216C50.6407 15.179 50.551 15.4788 50.551 15.827C50.551 16.4329 50.835 16.9149 51.4351 17.2814C52.0787 17.6288 53.1438 17.8919 54.6498 18.0592C57.7421 18.3966 60.0194 19.0873 61.456 20.1504C62.905 21.2227 63.6247 22.7745 63.6247 24.781C63.6247 26.1049 63.2353 27.2756 62.4556 28.2865C61.7054 29.2675 60.6282 30.0399 59.2343 30.6088L59.2327 30.6095C57.8644 31.1511 56.2877 31.4197 54.5058 31.4197C51.0744 31.4197 47.9986 30.4471 45.2837 28.5017C45.07 28.3485 45.0188 28.0562 45.1588 27.8381L46.9823 24.9977C47.141 24.7505 47.4731 24.6992 47.7039 24.8665C48.5514 25.4805 49.5454 25.9746 50.6878 26.3473C51.9606 26.7345 53.2752 26.9282 54.6319 26.9282C55.935 26.9282 56.926 26.7337 57.6204 26.3605C58.3034 25.9657 58.6287 25.4285 58.6287 24.739C58.6287 24.0804 58.3065 23.571 57.6225 23.2027L57.6213 23.202ZM67.2301 26.1643L67.2293 26.1628C66.3176 24.4819 65.8641 22.5484 65.8641 20.3671C65.8641 18.2128 66.332 16.3064 67.2727 14.6529C68.2126 12.9728 69.524 11.6755 71.2047 10.7639C72.9137 9.82403 74.8753 9.35644 77.085 9.35644C80.046 9.35644 82.6271 10.3629 84.8207 12.3724C85.0229 12.5576 85.0289 12.8692 84.8455 13.0661L82.441 15.6473C82.2486 15.8539 81.931 15.8534 81.7293 15.6733C81.1805 15.1833 80.5379 14.7951 79.7999 14.5095L79.7978 14.5086L79.7957 14.5078C78.9467 14.1517 78.0716 13.9741 77.169 13.9741C75.3026 13.9741 73.7914 14.5762 72.6208 15.7741C71.4783 16.9438 70.9022 18.4695 70.9022 20.3671C70.9022 22.293 71.4786 23.8323 72.6201 25.0014C73.7904 26.1713 75.3018 26.76 77.169 26.76C78.1576 26.76 79.0893 26.5817 79.9655 26.2257C80.7249 25.9172 81.3792 25.486 81.9303 24.9323C82.13 24.7317 82.4665 24.721 82.6672 24.9391L85.1027 27.5865C85.2833 27.7827 85.2774 28.0905 85.0789 28.2756C83.9832 29.297 82.8105 30.0617 81.5607 30.567C80.2216 31.1083 78.743 31.3777 77.127 31.3777C74.8903 31.3777 72.9151 30.9246 71.2062 30.0131C69.4977 29.1019 68.1715 27.8189 67.2309 26.1658L67.2301 26.1643ZM92.2646 30.139L92.2632 30.1382C90.555 29.1987 89.2294 27.8875 88.2893 26.2067C87.3487 24.5251 86.881 22.5768 86.881 20.3671C86.881 18.2134 87.3346 16.3076 88.2468 14.6544C89.1584 13.002 90.4416 11.7186 92.0938 10.8068C93.7472 9.86629 95.6535 9.39847 97.8076 9.39847C101.204 9.39847 103.884 10.3759 105.828 12.3482C107.772 14.3203 108.734 17.0426 108.734 20.4932C108.734 20.8107 108.713 21.2602 108.672 21.8396C108.654 22.0984 108.438 22.2976 108.18 22.2976H92.0707C92.2919 23.6812 92.9478 24.7845 94.0401 25.6167C95.1823 26.487 96.6441 26.9282 98.4382 26.9282C99.5965 26.9282 100.713 26.7352 101.787 26.3494C102.731 26.0106 103.486 25.5792 104.059 25.0589C104.253 24.8821 104.562 24.8691 104.761 25.0622L107.15 27.3811C107.342 27.5671 107.354 27.8773 107.161 28.0723C106.142 29.1013 104.88 29.9182 103.376 30.5249C101.787 31.1778 100.098 31.5038 98.312 31.5038C96.02 31.5038 94.0031 31.051 92.2661 30.1397L92.2646 30.139ZM103.966 18.3105C103.974 18.365 103.981 18.42 103.987 18.4754H91.9223C91.9334 18.42 91.9449 18.365 91.957 18.3105C92.2794 16.8488 92.9405 15.7127 93.9401 14.9022C94.9771 14.0614 96.3082 13.641 97.9337 13.641C99.6432 13.641 101.03 14.0754 102.095 14.9442C103.148 15.7806 103.771 16.9027 103.966 18.3105ZM120.744 24.9476L122.979 19.3792L126.804 10.1246C126.881 9.93954 127.061 9.81885 127.261 9.81885H131.585C131.94 9.81885 132.18 10.1823 132.039 10.5087L119.291 40.2004C119.213 40.3821 119.034 40.4999 118.836 40.4999H114.427C114.071 40.4999 113.832 40.1353 113.973 39.8086L117.95 30.6216L109.958 10.4962C109.829 10.1714 110.068 9.81885 110.417 9.81885H114.749C114.954 9.81885 115.138 9.94538 115.211 10.1369L118.746 19.3849L120.744 24.9476ZM142.245 31.209C140.026 31.209 138.296 30.5679 137.08 29.2649C135.865 27.9626 135.27 26.0661 135.27 23.6034V14.0201C135.266 14.0052 135.263 13.9895 135.264 13.9732L135.27 9.98317V4.85638C135.27 4.60374 135.46 4.39169 135.712 4.36453L139.718 3.93139C140.011 3.89976 140.266 4.12897 140.266 4.42324V9.81827H145.741C146.014 9.81827 146.235 10.0398 146.235 10.313V13.6469C146.235 13.9202 146.014 14.1417 145.741 14.1417H140.266V23.6034C140.266 24.6452 140.499 25.4133 140.94 25.9331C141.405 26.4489 142.084 26.7174 143.002 26.7174C143.713 26.7174 144.448 26.562 145.209 26.2475C145.473 26.1383 145.787 26.2651 145.884 26.545L146.969 29.6964C147.052 29.9376 146.938 30.2064 146.699 30.3074C145.98 30.6107 145.291 30.8263 144.634 30.9531C143.919 31.1242 143.123 31.209 142.245 31.209Z" fill="#111539"/>
<path d="M24.8171 14.9308H25.9132C31.3903 14.9308 35.7725 19.7734 35.7725 25.337C35.7725 30.9005 31.3903 35.7443 25.912 35.7443H13.8617C12.6522 35.7443 11.6706 34.7627 11.6706 33.5532V25.8839H22.626C23.2071 25.8839 23.7644 25.653 24.1753 25.2421C24.5862 24.8312 24.8171 24.2739 24.8171 23.6928V14.9285V14.9308Z" fill="#555DF6"/>
<path d="M24.817 7.26237C24.817 6.05172 23.8354 5.07129 22.6259 5.07129H10.5744C5.09732 5.07129 0.715164 9.91503 0.715164 15.4786C0.715164 21.0434 5.09732 25.8859 10.5756 25.8859H11.6706V17.1216C11.6706 15.9122 12.6522 14.9317 13.8616 14.9317H24.817V7.26237Z" fill="#111539"/>
</svg>
