<svg width="36" height="36" viewBox="0 0 36 36" fill="none" xmlns="http://www.w3.org/2000/svg">
<rect width="36" height="36" rx="18" fill="#5159F6"/>
<path d="M27.4342 16.7301L12.1935 8.20073C11.9396 8.05265 11.6472 7.98385 11.3538 8.00319C11.0605 8.02254 10.7796 8.12912 10.5473 8.30927C10.3101 8.49645 10.1378 8.75361 10.055 9.04424C9.97224 9.33487 9.98309 9.64419 10.0861 9.92831L12.6277 17.0285C12.6534 17.0993 12.7 17.1606 12.7614 17.2043C12.8228 17.2479 12.8961 17.2718 12.9714 17.2728H19.5018C19.6895 17.2698 19.8715 17.3381 20.0108 17.464C20.1501 17.59 20.2365 17.764 20.2525 17.9511C20.2587 18.0499 20.2446 18.1489 20.211 18.2419C20.1774 18.335 20.1251 18.4202 20.0573 18.4923C19.9894 18.5643 19.9076 18.6217 19.8167 18.6609C19.7258 18.7 19.6279 18.7201 19.5289 18.7199H12.9714C12.8961 18.7209 12.8228 18.7448 12.7614 18.7884C12.7 18.8321 12.6534 18.8934 12.6277 18.9642L10.0861 26.0644C10.0098 26.2831 9.98681 26.5169 10.019 26.7463C10.0512 26.9757 10.1377 27.1941 10.2713 27.3834C10.4048 27.5726 10.5816 27.7273 10.7869 27.8346C10.9922 27.9418 11.2202 27.9985 11.4518 28C11.6983 27.9989 11.9407 27.9367 12.1573 27.8191L27.4342 19.2626C27.658 19.1355 27.8441 18.9514 27.9736 18.7289C28.1031 18.5065 28.1713 18.2537 28.1713 17.9963C28.1713 17.739 28.1031 17.4862 27.9736 17.2637C27.8441 17.0413 27.658 16.8572 27.4342 16.7301Z" fill="white"/>
</svg>
